<svg id="visual" viewBox="0 0 1920 1080" width="1920" height="1080" xmlns="http://www.w3.org/2000/svg" xmlns:xlink="http://www.w3.org/1999/xlink" version="1.1"><rect x="0" y="0" width="1920" height="1080" fill="#051923"></rect><path d="M0 692L274 636L549 793L823 749L1097 700L1371 651L1646 650L1920 743L1920 1081L1646 1081L1371 1081L1097 1081L823 1081L549 1081L274 1081L0 1081Z" fill="#8da9c4"></path><path d="M0 718L274 862L549 733L823 806L1097 766L1371 805L1646 769L1920 829L1920 1081L1646 1081L1371 1081L1097 1081L823 1081L549 1081L274 1081L0 1081Z" fill="#6b85a2"></path><path d="M0 793L274 884L549 815L823 853L1097 862L1371 907L1646 821L1920 836L1920 1081L1646 1081L1371 1081L1097 1081L823 1081L549 1081L274 1081L0 1081Z" fill="#4a6382"></path><path d="M0 943L274 976L549 912L823 954L1097 945L1371 877L1646 958L1920 927L1920 1081L1646 1081L1371 1081L1097 1081L823 1081L549 1081L274 1081L0 1081Z" fill="#2b4363"></path><path d="M0 1033L274 964L549 982L823 1017L1097 1011L1371 949L1646 1013L1920 971L1920 1081L1646 1081L1371 1081L1097 1081L823 1081L549 1081L274 1081L0 1081Z" fill="#0b2545"></path></svg>