<svg id="visual" viewBox="0 0 960 540" width="960" height="540" xmlns="http://www.w3.org/2000/svg" xmlns:xlink="http://www.w3.org/1999/xlink" version="1.1"><path d="M0 82L80 82L80 28L160 28L160 60L240 60L240 66L320 66L320 87L400 87L400 82L480 82L480 44L560 44L560 44L640 44L640 50L720 50L720 87L800 87L800 55L880 55L880 28L960 28L960 50L960 0L960 0L880 0L880 0L800 0L800 0L720 0L720 0L640 0L640 0L560 0L560 0L480 0L480 0L400 0L400 0L320 0L320 0L240 0L240 0L160 0L160 0L80 0L80 0L0 0Z" fill="#fcfdff"></path><path d="M0 109L80 109L80 104L160 104L160 104L240 104L240 120L320 120L320 136L400 136L400 147L480 147L480 98L560 98L560 120L640 120L640 120L720 120L720 136L800 136L800 104L880 104L880 71L960 71L960 125L960 48L960 26L880 26L880 53L800 53L800 85L720 85L720 48L640 48L640 42L560 42L560 42L480 42L480 80L400 80L400 85L320 85L320 64L240 64L240 58L160 58L160 26L80 26L80 80L0 80Z" fill="#c6ccdc"></path><path d="M0 163L80 163L80 174L160 174L160 190L240 190L240 190L320 190L320 206L400 206L400 201L480 201L480 158L560 158L560 174L640 174L640 212L720 212L720 217L800 217L800 195L880 195L880 206L960 206L960 255L960 123L960 69L880 69L880 102L800 102L800 134L720 134L720 118L640 118L640 118L560 118L560 96L480 96L480 145L400 145L400 134L320 134L320 118L240 118L240 102L160 102L160 102L80 102L80 107L0 107Z" fill="#939db9"></path><path d="M0 287L80 287L80 303L160 303L160 411L240 411L240 325L320 325L320 341L400 341L400 379L480 379L480 244L560 244L560 276L640 276L640 357L720 357L720 390L800 390L800 309L880 309L880 368L960 368L960 417L960 253L960 204L880 204L880 193L800 193L800 215L720 215L720 210L640 210L640 172L560 172L560 156L480 156L480 199L400 199L400 204L320 204L320 188L240 188L240 188L160 188L160 172L80 172L80 161L0 161Z" fill="#647097"></path><path d="M0 379L80 379L80 401L160 401L160 444L240 444L240 422L320 422L320 417L400 417L400 444L480 444L480 287L560 287L560 374L640 374L640 411L720 411L720 476L800 476L800 374L880 374L880 444L960 444L960 455L960 415L960 366L880 366L880 307L800 307L800 388L720 388L720 355L640 355L640 274L560 274L560 242L480 242L480 377L400 377L400 339L320 339L320 323L240 323L240 409L160 409L160 301L80 301L80 285L0 285Z" fill="#374675"></path><path d="M0 541L80 541L80 541L160 541L160 541L240 541L240 541L320 541L320 541L400 541L400 541L480 541L480 541L560 541L560 541L640 541L640 541L720 541L720 541L800 541L800 541L880 541L880 541L960 541L960 541L960 453L960 442L880 442L880 372L800 372L800 474L720 474L720 409L640 409L640 372L560 372L560 285L480 285L480 442L400 442L400 415L320 415L320 420L240 420L240 442L160 442L160 399L80 399L80 377L0 377Z" fill="#001f54"></path></svg>