<svg xmlns="http://www.w3.org/2000/svg" xmlns:xlink="http://www.w3.org/1999/xlink" width="500" zoomAndPan="magnify" viewBox="0 0 375 128.249994" height="171" preserveAspectRatio="xMidYMid meet" version="1.2"><defs><clipPath id="3cf045be07"><path d="M 334 51 L 373.910156 51 L 373.910156 106 L 334 106 Z M 334 51 "/></clipPath><clipPath id="52f8e04543"><path d="M 24 0.214844 L 113 0.214844 L 113 104 L 24 104 Z M 24 0.214844 "/></clipPath><clipPath id="3ff65addde"><path d="M 28 47 L 133 47 L 133 126.976562 L 28 126.976562 Z M 28 47 "/></clipPath><clipPath id="1d865fa90e"><path d="M 1.089844 30 L 90 30 L 90 125 L 1.089844 125 Z M 1.089844 30 "/></clipPath></defs><g id="3e019e5321"><g style="fill:#ffffff;fill-opacity:1;"><g transform="translate(145.220051, 89.218413)"><path style="stroke:none" d="M 26.1875 0.703125 C 19.382812 0.703125 14.335938 -0.910156 11.046875 -4.140625 C 7.753906 -7.367188 6.109375 -12.160156 6.109375 -18.515625 L 6.109375 -49.40625 L 15.671875 -49.40625 L 15.671875 -18.578125 C 15.671875 -14.972656 16.535156 -12.269531 18.265625 -10.46875 C 20.003906 -8.664062 22.644531 -7.765625 26.1875 -7.765625 C 33.195312 -7.765625 36.703125 -11.367188 36.703125 -18.578125 L 36.703125 -49.40625 L 46.265625 -49.40625 L 46.265625 -18.515625 C 46.265625 -12.160156 44.617188 -7.367188 41.328125 -4.140625 C 38.035156 -0.910156 32.988281 0.703125 26.1875 0.703125 Z M 26.1875 0.703125 "/></g></g><g style="fill:#ffffff;fill-opacity:1;"><g transform="translate(197.582355, 89.218413)"><path style="stroke:none" d="M 5.375 0 L 5.375 -37.265625 L 14.359375 -37.265625 L 14.359375 -31.796875 L 15.078125 -31.625 C 17.390625 -35.863281 21.148438 -37.984375 26.359375 -37.984375 C 30.660156 -37.984375 33.816406 -36.8125 35.828125 -34.46875 C 37.847656 -32.125 38.859375 -28.710938 38.859375 -24.234375 L 38.859375 0 L 29.5 0 L 29.5 -23.078125 C 29.5 -25.554688 29.003906 -27.34375 28.015625 -28.4375 C 27.023438 -29.53125 25.4375 -30.078125 23.25 -30.078125 C 20.570312 -30.078125 18.484375 -29.207031 16.984375 -27.46875 C 15.484375 -25.738281 14.734375 -23.015625 14.734375 -19.296875 L 14.734375 0 Z M 5.375 0 "/></g></g><g style="fill:#ffffff;fill-opacity:1;"><g transform="translate(241.228869, 89.218413)"><path style="stroke:none" d="M 5.375 0 L 5.375 -37.265625 L 14.359375 -37.265625 L 14.359375 -31.796875 L 15.078125 -31.625 C 17.390625 -35.863281 21.148438 -37.984375 26.359375 -37.984375 C 30.660156 -37.984375 33.816406 -36.8125 35.828125 -34.46875 C 37.847656 -32.125 38.859375 -28.710938 38.859375 -24.234375 L 38.859375 0 L 29.5 0 L 29.5 -23.078125 C 29.5 -25.554688 29.003906 -27.34375 28.015625 -28.4375 C 27.023438 -29.53125 25.4375 -30.078125 23.25 -30.078125 C 20.570312 -30.078125 18.484375 -29.207031 16.984375 -27.46875 C 15.484375 -25.738281 14.734375 -23.015625 14.734375 -19.296875 L 14.734375 0 Z M 5.375 0 "/></g></g><g style="fill:#ffffff;fill-opacity:1;"><g transform="translate(284.875383, 89.218413)"><path style="stroke:none" d="M 10.03125 -41.734375 C 8.34375 -41.734375 6.96875 -42.242188 5.90625 -43.265625 C 4.851562 -44.296875 4.328125 -45.617188 4.328125 -47.234375 C 4.328125 -48.835938 4.851562 -50.148438 5.90625 -51.171875 C 6.96875 -52.203125 8.34375 -52.71875 10.03125 -52.71875 C 11.15625 -52.71875 12.15625 -52.476562 13.03125 -52 C 13.914062 -51.53125 14.597656 -50.882812 15.078125 -50.0625 C 15.566406 -49.238281 15.8125 -48.296875 15.8125 -47.234375 C 15.8125 -46.179688 15.566406 -45.238281 15.078125 -44.40625 C 14.597656 -43.570312 13.914062 -42.914062 13.03125 -42.4375 C 12.15625 -41.96875 11.15625 -41.734375 10.03125 -41.734375 Z M 5.375 0 L 5.375 -37.265625 L 14.734375 -37.265625 L 14.734375 0 Z M 5.375 0 "/></g></g><g style="fill:#ffffff;fill-opacity:1;"><g transform="translate(304.941969, 89.218413)"><path style="stroke:none" d="M 25.71875 -8.890625 L 28.140625 -1.953125 C 27.128906 -1.117188 25.859375 -0.46875 24.328125 0 C 22.796875 0.46875 21.0625 0.703125 19.125 0.703125 C 15.09375 0.703125 12.03125 -0.390625 9.9375 -2.578125 C 7.84375 -4.773438 6.796875 -7.972656 6.796875 -12.171875 L 6.796875 -29.875 L 1.109375 -29.875 L 1.109375 -37.3125 L 6.796875 -37.3125 L 6.796875 -44.5625 L 16.15625 -46.09375 L 16.15625 -37.3125 L 26.734375 -37.3125 L 26.734375 -29.875 L 16.15625 -29.875 L 16.15625 -12.84375 C 16.15625 -10.988281 16.535156 -9.640625 17.296875 -8.796875 C 18.066406 -7.953125 19.179688 -7.53125 20.640625 -7.53125 C 22.304688 -7.53125 23.757812 -7.984375 25 -8.890625 Z M 25.71875 -8.890625 "/></g></g><g clip-rule="nonzero" clip-path="url(#3cf045be07)"><g style="fill:#ffffff;fill-opacity:1;"><g transform="translate(333.893262, 89.218413)"><path style="stroke:none" d="M 8.25 15.8125 C 6.644531 15.8125 5.191406 15.6875 3.890625 15.4375 C 2.597656 15.195312 1.550781 14.875 0.75 14.46875 L 2.234375 6.890625 L 2.84375 6.6875 C 3.40625 6.976562 4.101562 7.210938 4.9375 7.390625 C 5.769531 7.578125 6.625 7.671875 7.5 7.671875 C 9.007812 7.671875 10.265625 7.472656 11.265625 7.078125 C 12.265625 6.679688 13.113281 6.023438 13.8125 5.109375 C 14.519531 4.203125 15.140625 2.9375 15.671875 1.3125 L 0.8125 -37.265625 L 10.609375 -37.265625 L 19.875 -11.359375 L 20.6875 -11.359375 L 29.703125 -37.265625 L 39.234375 -37.265625 L 24.265625 2.328125 C 23.066406 5.523438 21.75 8.097656 20.3125 10.046875 C 18.882812 11.992188 17.195312 13.441406 15.25 14.390625 C 13.300781 15.335938 10.96875 15.8125 8.25 15.8125 Z M 8.25 15.8125 "/></g></g></g><g clip-rule="nonzero" clip-path="url(#52f8e04543)"><path style=" stroke:none;fill-rule:nonzero;fill:#ffffff;fill-opacity:1;" d="M 24.101562 39.933594 C 53.476562 -41.746094 145.300781 19.101562 99.78125 81.996094 C 100.410156 83.671875 100.722656 85.507812 100.722656 87.367188 C 100.722656 96.039062 93.726562 103.039062 85.054688 103.039062 C 76.378906 103.039062 69.382812 96.039062 69.382812 87.367188 C 69.382812 78.691406 76.378906 71.695312 85.054688 71.695312 C 85.945312 71.695312 86.808594 71.722656 87.648438 71.878906 C 113.40625 29.324219 65.375 -25.523438 30.335938 36.972656 C 28.214844 37.839844 26.117188 38.808594 24.101562 39.933594 Z M 24.101562 39.933594 "/></g><g clip-rule="nonzero" clip-path="url(#3ff65addde)"><path style=" stroke:none;fill-rule:nonzero;fill:#ffffff;fill-opacity:1;" d="M 115.53125 47.664062 C 171.582031 113.9375 72.945312 163.074219 41.238281 92.214844 C 39.484375 91.902344 37.78125 91.273438 36.15625 90.355469 C 28.660156 86.003906 26.09375 76.4375 30.390625 68.945312 C 34.738281 61.449219 44.355469 58.882812 51.800781 63.179688 C 59.292969 67.503906 61.863281 77.09375 57.566406 84.589844 C 57.144531 85.375 56.621094 86.058594 56.097656 86.738281 C 80.074219 130.34375 151.613281 116.167969 114.980469 54.558594 C 115.292969 52.25 115.476562 49.972656 115.53125 47.664062 Z M 115.53125 47.664062 "/></g><g clip-rule="nonzero" clip-path="url(#1d865fa90e)"><path style=" stroke:none;fill-rule:nonzero;fill:#ffffff;fill-opacity:1;" d="M 63.09375 123.007812 C -22.28125 138.386719 -15.523438 28.429688 61.679688 36.398438 C 62.859375 35.035156 64.195312 33.882812 65.84375 32.9375 C 73.339844 28.589844 82.957031 31.15625 87.253906 38.652344 C 91.605469 46.144531 89.035156 55.761719 81.542969 60.0625 C 74.046875 64.410156 64.429688 61.816406 60.132812 54.347656 C 59.660156 53.5625 59.320312 52.800781 59.003906 51.988281 C 9.242188 50.941406 -14.238281 120.019531 57.40625 119.074219 C 59.242188 120.492188 61.101562 121.800781 63.09375 123.007812 Z M 63.09375 123.007812 "/></g></g></svg>