<svg id="visual" viewBox="0 0 900 600" width="900" height="600" xmlns="http://www.w3.org/2000/svg" xmlns:xlink="http://www.w3.org/1999/xlink" version="1.1"><rect x="0" y="0" width="900" height="600" fill="#dcdcdd"></rect><path d="M0 440L129 405L257 382L386 435L514 382L643 395L771 445L900 447L900 601L771 601L643 601L514 601L386 601L257 601L129 601L0 601Z" fill="#1985a1"></path><path d="M0 480L129 402L257 423L386 396L514 404L643 423L771 404L900 398L900 601L771 601L643 601L514 601L386 601L257 601L129 601L0 601Z" fill="#197390"></path><path d="M0 499L129 443L257 490L386 505L514 441L643 440L771 486L900 449L900 601L771 601L643 601L514 601L386 601L257 601L129 601L0 601Z" fill="#19627f"></path><path d="M0 542L129 525L257 522L386 540L514 530L643 521L771 512L900 485L900 601L771 601L643 601L514 601L386 601L257 601L129 601L0 601Z" fill="#18526d"></path><path d="M0 546L129 531L257 554L386 568L514 547L643 563L771 558L900 570L900 601L771 601L643 601L514 601L386 601L257 601L129 601L0 601Z" fill="#16425b"></path></svg>