<svg xmlns="http://www.w3.org/2000/svg" xmlns:xlink="http://www.w3.org/1999/xlink" width="500" zoomAndPan="magnify" viewBox="0 0 375 374.999991" height="500" preserveAspectRatio="xMidYMid meet" version="1.2"><defs><clipPath id="f4cc502ba9"><path d="M 21.003906 201.082031 L 358.503906 201.082031 L 358.503906 313.582031 L 21.003906 313.582031 Z M 21.003906 201.082031 "/></clipPath><clipPath id="f5825449bf"><path d="M 38.253906 201.082031 L 341.144531 201.082031 C 345.71875 201.082031 350.105469 202.898438 353.34375 206.132812 C 356.578125 209.367188 358.394531 213.757812 358.394531 218.332031 L 358.394531 296.332031 C 358.394531 300.90625 356.578125 305.292969 353.34375 308.527344 C 350.105469 311.765625 345.71875 313.582031 341.144531 313.582031 L 38.253906 313.582031 C 33.679688 313.582031 29.292969 311.765625 26.058594 308.527344 C 22.820312 305.292969 21.003906 300.90625 21.003906 296.332031 L 21.003906 218.332031 C 21.003906 213.757812 22.820312 209.367188 26.058594 206.132812 C 29.292969 202.898438 33.679688 201.082031 38.253906 201.082031 Z M 38.253906 201.082031 "/></clipPath><clipPath id="4037024a9f"><path d="M 41.347656 163.042969 L 346.425781 163.042969 L 346.425781 218.910156 L 41.347656 218.910156 Z M 41.347656 163.042969 "/></clipPath><clipPath id="e016141c20"><path d="M 58.597656 163.042969 L 329.046875 163.042969 C 333.621094 163.042969 338.011719 164.863281 341.246094 168.097656 C 344.480469 171.332031 346.296875 175.71875 346.296875 180.292969 L 346.296875 201.660156 C 346.296875 206.234375 344.480469 210.621094 341.246094 213.855469 C 338.011719 217.09375 333.621094 218.910156 329.046875 218.910156 L 58.597656 218.910156 C 54.023438 218.910156 49.636719 217.09375 46.402344 213.855469 C 43.167969 210.621094 41.347656 206.234375 41.347656 201.660156 L 41.347656 180.292969 C 41.347656 175.71875 43.167969 171.332031 46.402344 168.097656 C 49.636719 164.863281 54.023438 163.042969 58.597656 163.042969 Z M 58.597656 163.042969 "/></clipPath><clipPath id="856c3780d4"><path d="M 96.238281 53.390625 L 282.582031 53.390625 L 282.582031 201.082031 L 96.238281 201.082031 Z M 96.238281 53.390625 "/></clipPath><clipPath id="a02f41973a"><path d="M 113.488281 53.390625 L 265.167969 53.390625 C 269.742188 53.390625 274.128906 55.207031 277.367188 58.441406 C 280.601562 61.679688 282.417969 66.066406 282.417969 70.640625 L 282.417969 183.832031 C 282.417969 188.40625 280.601562 192.792969 277.367188 196.027344 C 274.128906 199.265625 269.742188 201.082031 265.167969 201.082031 L 113.488281 201.082031 C 108.914062 201.082031 104.523438 199.265625 101.289062 196.027344 C 98.054688 192.792969 96.238281 188.40625 96.238281 183.832031 L 96.238281 70.640625 C 96.238281 66.066406 98.054688 61.679688 101.289062 58.441406 C 104.523438 55.207031 108.914062 53.390625 113.488281 53.390625 Z M 113.488281 53.390625 "/></clipPath><clipPath id="60824d8bb1"><path d="M 123.082031 25.800781 L 244.382812 25.800781 L 244.382812 168.894531 L 123.082031 168.894531 Z M 123.082031 25.800781 "/></clipPath><clipPath id="01fe439ba7"><path d="M 140.332031 25.800781 L 227.132812 25.800781 C 231.707031 25.800781 236.09375 27.617188 239.328125 30.855469 C 242.5625 34.089844 244.382812 38.476562 244.382812 43.050781 L 244.382812 151.292969 C 244.382812 155.867188 242.5625 160.253906 239.328125 163.492188 C 236.09375 166.726562 231.707031 168.542969 227.132812 168.542969 L 140.332031 168.542969 C 135.757812 168.542969 131.371094 166.726562 128.136719 163.492188 C 124.902344 160.253906 123.082031 155.867188 123.082031 151.292969 L 123.082031 43.050781 C 123.082031 38.476562 124.902344 34.089844 128.136719 30.855469 C 131.371094 27.617188 135.757812 25.800781 140.332031 25.800781 Z M 140.332031 25.800781 "/></clipPath><clipPath id="9422c20960"><path d="M 158.921875 218.910156 L 337.777344 218.910156 L 337.777344 331.410156 L 158.921875 331.410156 Z M 158.921875 218.910156 "/></clipPath><clipPath id="34f95b3bb2"><path d="M 176.171875 218.910156 L 320.25 218.910156 C 324.824219 218.910156 329.210938 220.726562 332.449219 223.960938 C 335.683594 227.195312 337.5 231.585938 337.5 236.160156 L 337.5 314.160156 C 337.5 318.734375 335.683594 323.121094 332.449219 326.355469 C 329.210938 329.59375 324.824219 331.410156 320.25 331.410156 L 176.171875 331.410156 C 171.597656 331.410156 167.207031 329.59375 163.972656 326.355469 C 160.738281 323.121094 158.921875 318.734375 158.921875 314.160156 L 158.921875 236.160156 C 158.921875 231.585938 160.738281 227.195312 163.972656 223.960938 C 167.207031 220.726562 171.597656 218.910156 176.171875 218.910156 Z M 176.171875 218.910156 "/></clipPath><clipPath id="cacb015faa"><path d="M 48.851562 225 L 227.589844 225 L 227.589844 331.410156 L 48.851562 331.410156 Z M 48.851562 225 "/></clipPath><clipPath id="241ae4f649"><path d="M 66.101562 225 L 210.183594 225 C 214.757812 225 219.144531 226.816406 222.378906 230.050781 C 225.613281 233.289062 227.433594 237.675781 227.433594 242.25 L 227.433594 314.160156 C 227.433594 318.734375 225.613281 323.121094 222.378906 326.355469 C 219.144531 329.59375 214.757812 331.410156 210.183594 331.410156 L 66.101562 331.410156 C 61.527344 331.410156 57.140625 329.59375 53.90625 326.355469 C 50.671875 323.121094 48.851562 318.734375 48.851562 314.160156 L 48.851562 242.25 C 48.851562 237.675781 50.671875 233.289062 53.90625 230.050781 C 57.140625 226.816406 61.527344 225 66.101562 225 Z M 66.101562 225 "/></clipPath><clipPath id="b6820c33f0"><path d="M 75.449219 245.796875 L 260.417969 245.796875 L 260.417969 352.207031 L 75.449219 352.207031 Z M 75.449219 245.796875 "/></clipPath><clipPath id="009de6ba51"><path d="M 92.699219 245.796875 L 243.078125 245.796875 C 247.652344 245.796875 252.039062 247.613281 255.273438 250.851562 C 258.507812 254.085938 260.328125 258.472656 260.328125 263.046875 L 260.328125 334.957031 C 260.328125 339.53125 258.507812 343.921875 255.273438 347.15625 C 252.039062 350.390625 247.652344 352.207031 243.078125 352.207031 L 92.699219 352.207031 C 88.121094 352.207031 83.734375 350.390625 80.5 347.15625 C 77.265625 343.921875 75.449219 339.53125 75.449219 334.957031 L 75.449219 263.046875 C 75.449219 258.472656 77.265625 254.085938 80.5 250.851562 C 83.734375 247.613281 88.121094 245.796875 92.699219 245.796875 Z M 92.699219 245.796875 "/></clipPath><clipPath id="3e8dd3368a"><path d="M 138 229 L 327 229 L 327 358 L 138 358 Z M 138 229 "/></clipPath><clipPath id="81b4793df7"><path d="M 135.773438 255.296875 L 312.277344 227.132812 L 329.042969 332.214844 L 152.542969 360.378906 Z M 135.773438 255.296875 "/></clipPath><clipPath id="2b88895839"><path d="M 152.808594 252.578125 L 295.085938 229.875 C 299.605469 229.15625 304.222656 230.257812 307.929688 232.941406 C 311.632812 235.628906 314.117188 239.675781 314.839844 244.191406 L 326.171875 315.203125 C 326.890625 319.722656 325.789062 324.339844 323.105469 328.042969 C 320.417969 331.75 316.371094 334.234375 311.855469 334.957031 L 169.574219 357.660156 C 165.058594 358.382812 160.4375 357.277344 156.734375 354.59375 C 153.03125 351.90625 150.542969 347.863281 149.824219 343.34375 L 138.492188 272.332031 C 137.769531 267.816406 138.875 263.195312 141.558594 259.492188 C 144.242188 255.785156 148.289062 253.300781 152.808594 252.578125 Z M 152.808594 252.578125 "/></clipPath><clipPath id="0e23e99ee3"><path d="M 139 48 L 327 48 L 327 233 L 139 233 Z M 139 48 "/></clipPath><clipPath id="b8e2a1476c"><path d="M 251.660156 48.640625 L 326.910156 143.777344 L 214.953125 232.328125 L 139.707031 137.195312 Z M 251.660156 48.640625 "/></clipPath><clipPath id="0baaf38611"><path d="M 176 120 L 331 120 L 331 290 L 176 290 Z M 176 120 "/></clipPath><clipPath id="c34aab9127"><path d="M 212.730469 120.660156 L 330.148438 151.082031 L 294.34375 289.261719 L 176.925781 258.835938 Z M 212.730469 120.660156 "/></clipPath><clipPath id="8817739e3c"><path d="M 286 141 L 328 141 L 328 280 L 286 280 Z M 286 141 "/></clipPath><clipPath id="4f6610489a"><path d="M 321.085938 140.484375 L 327.839844 142.234375 L 292.03125 280.429688 L 285.28125 278.679688 Z M 321.085938 140.484375 "/></clipPath><clipPath id="de9e36d536"><path d="M 324.464844 141.359375 C 325.359375 141.589844 326.125 142.167969 326.59375 142.964844 C 327.0625 143.761719 327.195312 144.710938 326.964844 145.609375 L 292.910156 277.035156 C 292.675781 277.929688 292.097656 278.699219 291.300781 279.167969 C 290.503906 279.636719 289.554688 279.769531 288.660156 279.535156 C 287.765625 279.304688 287 278.726562 286.527344 277.929688 C 286.058594 277.132812 285.925781 276.183594 286.160156 275.289062 L 320.214844 143.859375 C 320.445312 142.964844 321.023438 142.195312 321.820312 141.726562 C 322.617188 141.257812 323.566406 141.125 324.464844 141.359375 Z M 324.464844 141.359375 "/></clipPath><clipPath id="778ba85d98"><path d="M 50 115 L 95 115 L 95 174 L 50 174 Z M 50 115 "/></clipPath><clipPath id="70a8a6dbb5"><path d="M 67.957031 113.601562 L 96.234375 124.421875 L 76.621094 175.675781 L 48.34375 164.851562 Z M 67.957031 113.601562 "/></clipPath><clipPath id="f849501bd8"><path d="M 73.5625 115.746094 L 90.632812 122.277344 C 92.117188 122.84375 93.316406 123.980469 93.964844 125.433594 C 94.613281 126.886719 94.660156 128.539062 94.089844 130.023438 L 78.773438 170.050781 C 78.207031 171.535156 77.070312 172.734375 75.617188 173.382812 C 74.164062 174.03125 72.511719 174.078125 71.027344 173.507812 L 53.957031 166.976562 C 52.46875 166.40625 51.269531 165.273438 50.621094 163.820312 C 49.972656 162.367188 49.929688 160.714844 50.496094 159.226562 L 65.8125 119.203125 C 66.382812 117.71875 67.519531 116.519531 68.972656 115.871094 C 70.425781 115.21875 72.074219 115.175781 73.5625 115.746094 Z M 73.5625 115.746094 "/></clipPath><clipPath id="6efd7d3a1f"><path d="M 67 79 L 112 79 L 112 138 L 67 138 Z M 67 79 "/></clipPath><clipPath id="81429ef931"><path d="M 85.207031 77.300781 L 113.484375 88.121094 L 93.871094 139.375 L 65.59375 128.554688 Z M 85.207031 77.300781 "/></clipPath><clipPath id="fdf032dad2"><path d="M 90.8125 79.445312 L 107.882812 85.976562 C 109.367188 86.546875 110.566406 87.679688 111.214844 89.132812 C 111.863281 90.585938 111.910156 92.238281 111.339844 93.726562 L 96.023438 133.75 C 95.457031 135.234375 94.320312 136.433594 92.867188 137.082031 C 91.414062 137.730469 89.761719 137.777344 88.277344 137.207031 L 71.207031 130.675781 C 69.71875 130.109375 68.519531 128.972656 67.871094 127.519531 C 67.222656 126.066406 67.179688 124.414062 67.746094 122.929688 L 83.0625 82.902344 C 83.632812 81.417969 84.769531 80.21875 86.222656 79.570312 C 87.675781 78.921875 89.324219 78.875 90.8125 79.445312 Z M 90.8125 79.445312 "/></clipPath></defs><g id="e87c6cdd76"><g clip-rule="nonzero" clip-path="url(#f4cc502ba9)"><g clip-rule="nonzero" clip-path="url(#f5825449bf)"><path style=" stroke:none;fill-rule:nonzero;fill:#ffffff;fill-opacity:1;" d="M 21.003906 201.082031 L 358.503906 201.082031 L 358.503906 313.582031 L 21.003906 313.582031 Z M 21.003906 201.082031 "/></g></g><g clip-rule="nonzero" clip-path="url(#4037024a9f)"><g clip-rule="nonzero" clip-path="url(#e016141c20)"><path style=" stroke:none;fill-rule:nonzero;fill:#ffffff;fill-opacity:1;" d="M 41.347656 163.042969 L 346.207031 163.042969 L 346.207031 218.910156 L 41.347656 218.910156 Z M 41.347656 163.042969 "/></g></g><g clip-rule="nonzero" clip-path="url(#856c3780d4)"><g clip-rule="nonzero" clip-path="url(#a02f41973a)"><path style=" stroke:none;fill-rule:nonzero;fill:#ffffff;fill-opacity:1;" d="M 96.238281 53.390625 L 282.582031 53.390625 L 282.582031 201.082031 L 96.238281 201.082031 Z M 96.238281 53.390625 "/></g></g><g clip-rule="nonzero" clip-path="url(#60824d8bb1)"><g clip-rule="nonzero" clip-path="url(#01fe439ba7)"><path style=" stroke:none;fill-rule:nonzero;fill:#ffffff;fill-opacity:1;" d="M 123.082031 25.800781 L 244.382812 25.800781 L 244.382812 168.421875 L 123.082031 168.421875 Z M 123.082031 25.800781 "/></g></g><g clip-rule="nonzero" clip-path="url(#9422c20960)"><g clip-rule="nonzero" clip-path="url(#34f95b3bb2)"><path style=" stroke:none;fill-rule:nonzero;fill:#ffffff;fill-opacity:1;" d="M 158.921875 218.910156 L 337.339844 218.910156 L 337.339844 331.410156 L 158.921875 331.410156 Z M 158.921875 218.910156 "/></g></g><g clip-rule="nonzero" clip-path="url(#cacb015faa)"><g clip-rule="nonzero" clip-path="url(#241ae4f649)"><path style=" stroke:none;fill-rule:nonzero;fill:#ffffff;fill-opacity:1;" d="M 48.851562 225 L 227.589844 225 L 227.589844 331.410156 L 48.851562 331.410156 Z M 48.851562 225 "/></g></g><g clip-rule="nonzero" clip-path="url(#b6820c33f0)"><g clip-rule="nonzero" clip-path="url(#009de6ba51)"><path style=" stroke:none;fill-rule:nonzero;fill:#ffffff;fill-opacity:1;" d="M 75.449219 245.796875 L 260.417969 245.796875 L 260.417969 352.207031 L 75.449219 352.207031 Z M 75.449219 245.796875 "/></g></g><g clip-rule="nonzero" clip-path="url(#3e8dd3368a)"><g clip-rule="nonzero" clip-path="url(#81b4793df7)"><g clip-rule="nonzero" clip-path="url(#2b88895839)"><path style=" stroke:none;fill-rule:nonzero;fill:#ffffff;fill-opacity:1;" d="M 135.773438 255.296875 L 312.277344 227.132812 L 329.042969 332.214844 L 152.542969 360.378906 Z M 135.773438 255.296875 "/></g></g></g><g clip-rule="nonzero" clip-path="url(#0e23e99ee3)"><g clip-rule="nonzero" clip-path="url(#b8e2a1476c)"><path style=" stroke:none;fill-rule:nonzero;fill:#ffffff;fill-opacity:1;" d="M 251.660156 48.640625 L 326.910156 143.777344 L 215.050781 232.253906 L 139.800781 137.117188 Z M 251.660156 48.640625 "/></g></g><g clip-rule="nonzero" clip-path="url(#0baaf38611)"><g clip-rule="nonzero" clip-path="url(#c34aab9127)"><path style=" stroke:none;fill-rule:nonzero;fill:#ffffff;fill-opacity:1;" d="M 212.730469 120.660156 L 330.148438 151.082031 L 294.375 289.144531 L 176.957031 258.71875 Z M 212.730469 120.660156 "/></g></g><g clip-rule="nonzero" clip-path="url(#8817739e3c)"><g clip-rule="nonzero" clip-path="url(#4f6610489a)"><g clip-rule="nonzero" clip-path="url(#de9e36d536)"><path style=" stroke:none;fill-rule:nonzero;fill:#ffffff;fill-opacity:1;" d="M 321.085938 140.484375 L 327.839844 142.234375 L 292.035156 280.402344 L 285.285156 278.652344 Z M 321.085938 140.484375 "/></g></g></g><g clip-rule="nonzero" clip-path="url(#778ba85d98)"><g clip-rule="nonzero" clip-path="url(#70a8a6dbb5)"><g clip-rule="nonzero" clip-path="url(#f849501bd8)"><path style=" stroke:none;fill-rule:nonzero;fill:#ffffff;fill-opacity:1;" d="M 67.957031 113.601562 L 96.234375 124.421875 L 76.621094 175.675781 L 48.34375 164.851562 Z M 67.957031 113.601562 "/></g></g></g><g clip-rule="nonzero" clip-path="url(#6efd7d3a1f)"><g clip-rule="nonzero" clip-path="url(#81429ef931)"><g clip-rule="nonzero" clip-path="url(#fdf032dad2)"><path style=" stroke:none;fill-rule:nonzero;fill:#ffffff;fill-opacity:1;" d="M 85.207031 77.300781 L 113.484375 88.121094 L 93.871094 139.375 L 65.59375 128.554688 Z M 85.207031 77.300781 "/></g></g></g><path style=" stroke:none;fill-rule:nonzero;fill:#30fff8;fill-opacity:1;" d="M 65.578125 119.976562 C 149.222656 -112.597656 410.671875 60.65625 281.066406 239.734375 C 282.859375 244.507812 283.753906 249.730469 283.753906 255.027344 C 283.753906 279.726562 263.832031 299.648438 239.132812 299.648438 C 214.4375 299.648438 194.515625 279.726562 194.515625 255.027344 C 194.515625 230.332031 214.4375 210.410156 239.132812 210.410156 C 241.671875 210.410156 244.132812 210.484375 246.519531 210.929688 C 319.867188 89.757812 183.097656 -66.410156 83.339844 111.542969 C 77.292969 114.007812 71.324219 116.769531 65.578125 119.976562 Z M 65.578125 119.976562 "/><path style=" stroke:none;fill-rule:nonzero;fill:#2a8cd6;fill-opacity:1;" d="M 325.910156 141.988281 C 485.511719 330.6875 204.660156 470.589844 114.378906 268.832031 C 109.378906 267.9375 104.527344 266.144531 99.902344 263.535156 C 78.5625 251.148438 71.25 223.914062 83.488281 202.574219 C 95.875 181.234375 123.257812 173.921875 144.449219 186.160156 C 165.789062 198.472656 173.101562 225.78125 160.863281 247.121094 C 159.667969 249.359375 158.175781 251.296875 156.683594 253.238281 C 224.957031 377.398438 428.65625 337.03125 324.34375 161.609375 C 325.238281 155.046875 325.761719 148.554688 325.910156 141.988281 Z M 325.910156 141.988281 "/><path style=" stroke:none;fill-rule:nonzero;fill:#00c4ff;fill-opacity:1;" d="M 176.605469 356.503906 C -66.488281 400.304688 -47.238281 87.21875 172.578125 109.902344 C 175.933594 106.023438 179.742188 102.738281 184.441406 100.054688 C 205.78125 87.667969 233.164062 94.980469 245.402344 116.320312 C 257.789062 137.660156 250.476562 165.042969 229.136719 177.28125 C 207.796875 189.667969 180.410156 182.28125 168.175781 161.015625 C 166.832031 158.777344 165.863281 156.613281 164.96875 154.296875 C 23.273438 151.3125 -43.582031 348 160.414062 345.3125 C 165.636719 349.339844 170.9375 353.074219 176.605469 356.503906 Z M 176.605469 356.503906 "/></g></svg>