<svg xmlns="http://www.w3.org/2000/svg" xmlns:xlink="http://www.w3.org/1999/xlink" width="500" zoomAndPan="magnify" viewBox="0 0 375 374.999991" height="500" preserveAspectRatio="xMidYMid meet" version="1.2"><g id="8ffee0e77a"><path style=" stroke:none;fill-rule:nonzero;fill:#30fff8;fill-opacity:1;" d="M 65.578125 119.976562 C 149.222656 -112.597656 410.671875 60.65625 281.066406 239.734375 C 282.859375 244.507812 283.753906 249.730469 283.753906 255.027344 C 283.753906 279.726562 263.832031 299.648438 239.132812 299.648438 C 214.4375 299.648438 194.515625 279.726562 194.515625 255.027344 C 194.515625 230.332031 214.4375 210.410156 239.132812 210.410156 C 241.671875 210.410156 244.132812 210.484375 246.519531 210.929688 C 319.867188 89.757812 183.097656 -66.410156 83.339844 111.542969 C 77.292969 114.007812 71.324219 116.769531 65.578125 119.976562 Z M 65.578125 119.976562 "/><path style=" stroke:none;fill-rule:nonzero;fill:#2a8cd6;fill-opacity:1;" d="M 325.910156 141.988281 C 485.511719 330.6875 204.660156 470.589844 114.378906 268.832031 C 109.378906 267.9375 104.527344 266.144531 99.902344 263.535156 C 78.5625 251.148438 71.25 223.914062 83.488281 202.574219 C 95.875 181.234375 123.257812 173.921875 144.449219 186.160156 C 165.789062 198.472656 173.101562 225.78125 160.863281 247.121094 C 159.667969 249.359375 158.175781 251.296875 156.683594 253.238281 C 224.957031 377.398438 428.65625 337.03125 324.34375 161.609375 C 325.238281 155.046875 325.761719 148.554688 325.910156 141.988281 Z M 325.910156 141.988281 "/><path style=" stroke:none;fill-rule:nonzero;fill:#00c4ff;fill-opacity:1;" d="M 176.605469 356.503906 C -66.488281 400.304688 -47.238281 87.21875 172.578125 109.902344 C 175.933594 106.023438 179.742188 102.738281 184.441406 100.054688 C 205.78125 87.667969 233.164062 94.980469 245.402344 116.320312 C 257.789062 137.660156 250.476562 165.042969 229.136719 177.28125 C 207.796875 189.667969 180.410156 182.28125 168.175781 161.015625 C 166.832031 158.777344 165.863281 156.613281 164.96875 154.296875 C 23.273438 151.3125 -43.582031 348 160.414062 345.3125 C 165.636719 349.339844 170.9375 353.074219 176.605469 356.503906 Z M 176.605469 356.503906 "/></g></svg>